<?xml version="1.0" encoding="UTF-8"?><svg id="Ebene_1" xmlns="http://www.w3.org/2000/svg" viewBox="0 0 1024 500"><defs><style>.cls-1{fill:#fff;}.cls-2{fill:#c9fa0a;}</style></defs><path class="cls-1" d="M800.8,138.91l-70.4,1,36.93-48.21,162.81.16-36.48,47.05h-36.3v138.64h-56.56v-138.64Z"/><polyline class="cls-1" points="683.34 159.05 736.32 90.66 675.81 90.66 651.36 119.14"/><polygon class="cls-1" points="521.41 91.7 597.57 91.7 671.23 181.35 595.84 276.95 517.87 276.75 598.64 181.36 521.41 91.7"/><path class="cls-1" d="M353.19,410.46l-20.81-37.88h-48.82v37.88h-12.39v-84.65h70.22c18.76,0,25.86,8.29,25.86,20.44v5.89c0,11.78-6.97,19.36-21.88,20.2l20.92,38.12h-13.11ZM354.99,346.25c0-6.74-4.08-10.7-13.59-10.7h-57.84v27.3h57.84c9.26,0,13.59-4.57,13.59-10.58v-6.01Z"/><path class="cls-1" d="M416.16,410.46v-84.65h84.9v9.74h-72.51v25.37h69.03v9.62h-69.03v30.3h72.51v9.61h-84.9Z"/><path class="cls-1" d="M562.35,378.59v31.87h-12.39v-84.65h67.7c18.76,0,25.98,8.29,25.98,20.44v11.91c0,12.14-7.22,20.43-25.98,20.43h-55.31ZM631.25,346.25c0-8.78-6.97-10.7-20.8-10.7h-48.1v33.43h53.39c10.58,0,15.51-3.73,15.51-10.7v-12.02Z"/><path class="cls-1" d="M674,405.17v-9.61h71.91c8.9,0,13.46-4.57,13.46-10.58v-9.26c0-6.26-4.45-10.46-13.46-10.46h-48.95c-18.63,0-25.73-8.3-25.73-20.33v-4.08c0-12.03,7.1-20.33,25.73-20.33h70.1v9.74h-70.1c-9.25,0-13.35,4.21-13.35,10.46v4.33c0,6.5,4.45,10.47,13.35,10.47h48.95c18.63,0,25.73,8.29,25.73,20.32v9.14c0,12.02-7.1,20.2-25.73,20.2h-71.91Z"/><polygon class="cls-1" points="485.28 90.49 356.1 90.49 356.1 128.13 521.41 128.45 485.28 90.49"/><rect class="cls-1" x="356.1" y="152.73" width="88.15" height="61.97"/><polygon class="cls-2" points="108.4 151.53 108.07 277.55 165.74 277.55 165.7 227.98 283.47 277.55 288.15 277.55 288 167.34 326.8 128.82 326.8 91.1 288.21 91.1 232.88 144.98 232.88 196.84 112.85 151.53 108.4 151.53"/><polygon class="cls-1" points="485.28 276.95 356.1 276.95 356.1 239.3 521.41 238.98 485.28 276.95"/><polyline class="cls-1" points="683.34 208.38 736.32 276.77 675.81 276.77 651.36 248.3"/></svg>