<?xml version="1.0" encoding="UTF-8"?><svg id="Ebene_1" xmlns="http://www.w3.org/2000/svg" viewBox="0 0 1024 500"><defs><style>.cls-1{fill:#fff;}.cls-2{fill:#c9fa0a;}</style></defs><path class="cls-1" d="M862.88,110.14l-87.69,1.25,46-60.06,202.8.2-45.45,58.61h-45.22v172.69h-70.46V110.14Z"/><polyline class="cls-1" points="716.58 135.22 782.57 50.03 707.19 50.03 676.74 85.5"/><polygon class="cls-1" points="514.87 51.33 609.73 51.33 701.49 162.99 607.58 282.07 510.46 281.83 611.06 163.01 514.87 51.33"/><path class="cls-1" d="M413.89,445.08l-26.22-47.74h-61.53v47.74h-15.61v-106.69h88.5c23.64,0,32.59,10.45,32.59,25.77v7.43c0,14.85-8.79,24.4-27.58,25.46l26.37,48.04h-16.52ZM416.16,364.16c0-8.49-5.15-13.49-17.13-13.49h-72.89v34.4h72.89c11.67,0,17.13-5.76,17.13-13.34v-7.58Z"/><path class="cls-1" d="M493.25,445.08v-106.69h107v12.28h-91.39v31.97h87v12.13h-87v38.19h91.39v12.12h-107Z"/><path class="cls-1" d="M677.5,404.92v40.17h-15.61v-106.69h85.32c23.64,0,32.74,10.45,32.74,25.77v15.01c0,15.3-9.09,25.75-32.74,25.75h-69.71ZM764.33,364.16c0-11.07-8.79-13.49-26.21-13.49h-60.63v42.13h67.29c13.34,0,19.55-4.7,19.55-13.49v-15.15Z"/><path class="cls-1" d="M818.21,438.42v-12.12h90.63c11.22,0,16.97-5.76,16.97-13.34v-11.67c0-7.89-5.6-13.18-16.97-13.18h-61.69c-23.48,0-32.43-10.46-32.43-25.62v-5.15c0-15.17,8.95-25.62,32.43-25.62h88.35v12.28h-88.35c-11.66,0-16.82,5.31-16.82,13.18v5.45c0,8.19,5.61,13.19,16.82,13.19h61.69c23.48,0,32.43,10.45,32.43,25.61v11.53c0,15.15-8.95,25.46-32.43,25.46h-90.63Z"/><polyline class="cls-2" points="71.84 282.83 71.79 221.08 218.48 282.83 224.32 282.83 224.13 145.54 272.46 97.57 272.46 50.57 224.39 50.57 155.47 117.69 155.47 182.29 5.96 125.85 .42 125.85 0 282.83 0 448.38 71.84 448.38 71.84 282.83"/><polyline class="cls-1" points="716.58 196.67 782.57 281.86 707.19 281.86 676.74 246.39"/><path class="cls-1" d="M472.39,223.36v58.81h-161.87V50.03h160.63v58.81h-94.71v28.16h89.14v53.24h-89.14v33.11h95.94Z"/></svg>