<?xml version="1.0" encoding="UTF-8"?><svg id="Ebene_1" xmlns="http://www.w3.org/2000/svg" viewBox="0 0 1024 500"><defs><style>.cls-1{fill:#fff;}.cls-2{fill:#c9fa0a;}</style></defs><path class="cls-1" d="M800.8,138.91l-70.4,1,36.93-48.21,162.81.16-36.48,47.05h-36.3v138.64h-56.56v-138.64Z"/><polyline class="cls-1" points="683.34 159.05 736.32 90.66 675.81 90.66 651.36 119.14"/><polygon class="cls-1" points="521.41 91.7 597.57 91.7 671.23 181.35 595.84 276.95 517.87 276.75 598.64 181.36 521.41 91.7"/><path class="cls-1" d="M440.34,407.81l-21.05-38.33h-49.39v38.33h-12.53v-85.65h71.05c18.98,0,26.16,8.39,26.16,20.69v5.96c0,11.92-7.05,19.59-22.14,20.44l21.17,38.57h-13.27ZM442.16,342.85c0-6.82-4.13-10.83-13.75-10.83h-58.52v27.62h58.52c9.37,0,13.75-4.63,13.75-10.71v-6.08Z"/><path class="cls-1" d="M504.06,407.81v-85.65h85.9v9.86h-73.37v25.67h69.84v9.74h-69.84v30.66h73.37v9.73h-85.9Z"/><path class="cls-1" d="M651.97,375.57v32.25h-12.53v-85.65h68.49c18.98,0,26.28,8.39,26.28,20.69v12.05c0,12.28-7.3,20.68-26.28,20.68h-55.96ZM721.68,342.85c0-8.89-7.05-10.83-21.04-10.83h-48.67v33.82h54.02c10.71,0,15.69-3.77,15.69-10.83v-12.17Z"/><path class="cls-1" d="M764.94,402.46v-9.73h72.75c9.01,0,13.62-4.63,13.62-10.71v-9.37c0-6.33-4.5-10.58-13.62-10.58h-49.52c-18.85,0-26.03-8.4-26.03-20.57v-4.13c0-12.18,7.18-20.57,26.03-20.57h70.93v9.86h-70.93c-9.36,0-13.5,4.26-13.5,10.58v4.38c0,6.58,4.51,10.59,13.5,10.59h49.52c18.85,0,26.03,8.39,26.03,20.56v9.25c0,12.17-7.18,20.44-26.03,20.44h-72.75Z"/><polyline class="cls-2" points="165.74 277.55 165.7 227.98 283.47 277.55 288.15 277.55 288 167.34 326.8 128.82 326.8 91.1 288.21 91.1 232.88 144.98 232.88 196.84 112.85 151.53 108.4 151.53 108.07 277.55 108.07 410.46 165.74 410.46 165.74 277.55"/><polyline class="cls-1" points="683.34 208.38 736.32 276.77 675.81 276.77 651.36 248.3"/><path class="cls-1" d="M487.31,229.81v47.21h-129.95V90.66h128.96v47.21h-76.03v22.61h71.56v42.74h-71.56v26.58h77.02Z"/></svg>